<?xml version="1.0" encoding="utf-8"?>
<!-- Generator: Adobe Illustrator 22.1.0, SVG Export Plug-In . SVG Version: 6.00 Build 0)  -->
<svg version="1.1" id="Layer_1" xmlns="http://www.w3.org/2000/svg" xmlns:xlink="http://www.w3.org/1999/xlink" x="0px" y="0px"
	 viewBox="0 0 1280 1024" style="enable-background:new 0 0 1280 1024;" xml:space="preserve">
<style type="text/css">
	.st0{fill:none;}
	.st1{fill:#231F20;}
	.st2{font-family:'GabrielWeissFriendsFont';}
	.st3{font-size:12px;}
	.st4{opacity:0.7;fill:#EAAA65;stroke:#DC9F63;stroke-miterlimit:10;}
	.st5{fill:#BDCCCE;stroke:#B8C4C5;stroke-miterlimit:10;}
	.st6{opacity:0.75;fill:#BDCCCE;stroke:#B8C4C5;stroke-miterlimit:10;}
	.st7{opacity:0.73;fill:#EBBBB0;stroke:#DCB1AA;stroke-miterlimit:10;}
	.st8{opacity:0.7;fill:#826A5E;stroke:#756159;stroke-miterlimit:10;}
	.st9{opacity:0.83;fill:#CF786F;stroke:#C16D68;stroke-miterlimit:10;}
	.st10{opacity:0.86;fill:#6E7D76;stroke:#616E68;stroke-miterlimit:10;}
	.st11{fill:#BE1E2D;stroke:#BE1E2D;stroke-miterlimit:10;}
	.st12{fill:#FDE2D1;stroke:#3D343A;stroke-miterlimit:10;}
	.st13{fill:#FFFFFF;stroke:#3D343A;stroke-miterlimit:10;}
	.st14{fill:#EBBBB0;stroke:#3D343A;stroke-miterlimit:10;}
	.st15{fill:#CF786F;}
	.st16{fill:#CF786F;stroke:#CF786F;stroke-width:0.25;stroke-miterlimit:10;}
	.st17{fill:none;stroke:#3D343A;stroke-miterlimit:10;}
	.st18{fill:#FDE2D1;stroke:#FDE2D1;stroke-miterlimit:10;}
	.st19{fill:#251C26;stroke:#251C26;stroke-miterlimit:10;}
	.st20{fill:#443C41;stroke:#443C41;stroke-miterlimit:10;}
	.st21{fill:#D79E90;}
	.st22{fill:#F8BFA8;stroke:#F8BFA8;stroke-miterlimit:10;}
	.st23{fill:#784F4E;}
	.st24{fill:#19110F;}
	.st25{fill:#F0E3DF;}
	.st26{fill:#2A1C17;}
	.st27{fill:#2A1C17;stroke:#2A1C17;stroke-miterlimit:10;}
	.st28{fill:#3D343A;stroke:#3D343A;stroke-miterlimit:10;}
	.st29{fill:#443C41;}
	.st30{fill:#6B4A3A;stroke:#6B4A3A;stroke-miterlimit:10;}
	.st31{fill:#6B4A3A;stroke:#6B4A3A;stroke-width:0.25;stroke-miterlimit:10;}
	.st32{fill:#796044;stroke:#796044;stroke-miterlimit:10;}
	.st33{fill:#796044;}
	.st34{fill:#889283;stroke:#889283;stroke-miterlimit:10;}
	.st35{fill:#926F2A;}
	.st36{fill:#A57F3A;}
	.st37{fill:#B28953;}
	.st38{fill:#D28A75;}
	.st39{fill:#2A1C17;stroke:#2A1C17;stroke-width:0.25;stroke-miterlimit:10;}
	.st40{fill:#D4CD84;}
	.st41{fill:#251C26;}
	.st42{fill:#F1EEEA;}
	.st43{fill:#FFF9F7;}
	.st44{fill:#A6844F;}
	.st45{fill:#FDE2D1;}
	.st46{fill:#1A1311;}
	.st47{fill:#E0B09A;}
	.st48{fill:#AED5E7;}
	.st49{fill:#281D1B;}
	.st50{fill:#353134;}
	.st51{fill:#F1D075;}
	.st52{fill:#B6C57D;}
	.st53{fill:#FFE080;}
	.st54{fill:#F2CD8A;}
	.st55{fill:#CDAC3E;}
	.st56{fill:#F5ECE3;}
</style>
<rect x="545.6" y="895.4" class="st0" width="222.9" height="20.7"/>
<text id="graph_name_1_" transform="matrix(1 0 0 1 545.6131 902.7425)" class="st1 st2 st3">The one where everyone interacts </text>
<g>
	<g id="graph_1_">
		<g id="Phoebe_6_">
			<path class="st4" d="M745.5,654.8l-7.8-10.5c0,0,47.1-31.3,52.2-102.9l13.9,1.5C803.7,542.9,805.3,611.9,745.5,654.8z"/>
			<path class="st4" d="M737.6,644c0,0,4.1-2.4,6.5-5C744.1,639,670.6,554.7,737.6,644z"/>
			<path class="st4" d="M744.1,638.7c0,0,3.9-2,10.1-9.7c0,0-104.4-81.2-70-223c0,0-3.6-0.7-7-1.8
				C677.2,404.2,642.6,532.6,744.1,638.7z"/>
			<path class="st4" d="M766.8,611.9c0,0-4.4,7.6-12.6,17.2c0,0-89.8-101.5-220.8-40.8l-2.5-5.4C530.9,582.9,652.2,527,766.8,611.9z
				"/>
			<path class="st4" d="M766.4,611.4c0,0,1.6,1.6,11.7-19.3c0,0-123.5-72.2-169,70.3l6.9,2.5C616,664.8,642.1,522.4,766.4,611.4z"/>
			<path class="st4" d="M777.3,591.4c0,0,4.4-5.7,7.8-22.1c0,0-151.4-32.2,3.9-45.4l-1.9-14C787.1,509.9,632.1,531.1,777.3,591.4z"
				/>
			<path class="st4" d="M785.4,568c0,0,4.1-13,3.6-26.6c0,0-138.2,0.2-242.5-81.1c0,0-7.5,8.6-10.2,16
				C536.3,476.4,725.9,564.6,785.4,568z"/>
		</g>
		<g id="Joey_6_" >
			<path class="st5" d="M609.1,662.4l-4.9,13.5c0,0,69.7,29.9,137.1-16.9l-8.9-12.6C732.5,646.4,672.7,688.3,609.1,662.4z"/>
			<path class="st6" d="M732.3,646.4c0,0-65.1-126.2-160.3-6.8c0,0,17.1,16.4,32.2,19.9c0,0,50.2-143.2,99,1.2
				C703.2,660.7,715.8,656.7,732.3,646.4z"/>
			<path class="st6" d="M678.1,667.8c0,0,9.8-1.2,24.7-7c0,0-59.1-109.9,34.8-229.4c0,0-21.4-19.6-42.8-22.6
				C694.9,408.8,656.1,491.7,678.1,667.8z"/>
			<path class="st6" d="M654.3,670.5c0,0,8.8,0.6,24.1-2.7c0,0-32.3-200.1-48.4-261.8c0,0-16,1.2-27.7,8.6
				C602.3,414.6,669.9,557.7,654.3,670.5z"/>
			<path class="st6" d="M634.1,669c0,0,6,2.3,20.2,1.7c0,0,16.8-138.5-128.8-164.1c0,0-4.9,20.2-2.7,31.7
				C522.8,538.3,661.9,515,634.1,669z"/>
			<path class="st6" d="M618.9,665.9"/>
			<path class="st6" d="M616,664.8c0,0,12.3,4.4,17.8,4.4C633.8,669.2,651.6,560.1,616,664.8z"/>
		</g>
		<g id="Rachels_1_" >
			<path class="st7" d="M803.7,536.7c0,0,8.2-103.1-105-142.1l-3.8,14.2c0,0,89.7,18.2,94.2,127.9H803.7z"/>
			<path class="st7" d="M789,536.7l-0.8-11.7C788.2,525,677.2,535.2,789,536.7z"/>
		</g>
		<g id="Ross_6_">
			<path class="st8" d="M557.7,425.7c0,0,54.9-52.3,137.2-32.9l-4,14.3c0,0-68.3-20.9-124.2,30.4L557.7,425.7z"/>
			<path class="st8" d="M566.6,437.5c0,0,80.7,109.7,214.2,52.5c0,0-4.2-14-16.7-33.1c0,0-106.5,100.7-161.8-42.2
				C602.3,414.6,578.3,425.7,566.6,437.5z"/>
			<path class="st8" d="M684.2,406l6.7,1.1C690.9,407.1,668.1,499.3,684.2,406z"/>
		</g>
		<g id="Monica_6_">
			<path class="st9" d="M552.4,429.8c0,0-67,57.7-37,152.5L530,578c0,0-33.2-64.3,32.2-137.8L552.4,429.8z"/>
			<path class="st9" d="M562.2,440.1c0,0,79.2,80.4-6.4,7.6L562.2,440.1z"/>
			<path class="st9" d="M555.8,447.7l-9.3,12.6c0,0,116,99.9,108.4-57.4c0,0-18.7,1.8-24.3,3.1C630.6,406,678.3,554.9,555.8,447.7z"
				/>
			<path class="st9" d="M536.3,476.4c0,0-9.2,21.9-10.9,30.2c0,0,134.5,40.3,238.6-49.7c0,0-11.9-17.7-26.2-27.1
				C737.9,429.8,666.2,552.6,536.3,476.4z"/>
		</g>
		<g id="Chandler_1_">
			<path class="st10" d="M516.4,588.7c0,0,20.9,62.5,81.9,85.3l6-14.4c0,0-56.5-22.9-73.3-76.6L516.4,588.7z"/>
			<path class="st10" d="M533.4,588.3l3.7,9.8C537,598.1,638.2,546.3,533.4,588.3z"/>
			<path class="st10" d="M537,598.1l6,10.5c0,0,144.5-88.1,242.9-98.7c0,0,0.3-6.6-5.2-19.9C780.8,490,614.3,553.9,537,598.1z"/>
			<path class="st10" d="M543.1,608.6c0,0,113.3-45.7,111.9-205.8c0,0,8.6-1.4,22.3,1.4c0,0-14,135.2-126.3,215.1L543.1,608.6z"/>
			<path class="st10" d="M550.9,619.4c0,0,133-88-20.9-41.4c0,0-8.8-19-7.8-39.7c0,0,157-15,49.8,101.4L550.9,619.4z"/>
		</g>
	</g>
	<path id="heart_1_" class="st11" d="M742.9,330.5c0,0-4.3-6.3-7.2-11.1c-2.8-4.8-2.8-11.4,1.7-14.2c4.5-2.9,10.1-0.1,11.3,4.9
		c0,0,5.5-5.2,10.6-0.3c5.1,4.8,1.5,12.3-5.7,15.7C746.6,328.9,742.9,330.5,742.9,330.5z"/>
	<g id="ring_1_">
		<circle class="st12" cx="389.9" cy="612.1" r="11.6"/>
		<circle class="st13" cx="389.9" cy="612.1" r="8.9"/>
		<g id="Diamon_1_">
			<polygon class="st14" points="389.7,600.5 376.9,587.7 384,580.2 395.7,580.2 403.5,587.9 			"/>
			<polygon class="st15" points="389.7,599.4 384.8,588.3 394.9,588.3 			"/>
			<polygon class="st16" points="396.9,586.9 392.1,581.6 395.3,581.6 401,586.9 			"/>
			<polygon class="st16" points="387.6,581.6 384.3,581.6 379,586.9 383.3,586.9 			"/>
			<line class="st17" x1="377.5" y1="587.7" x2="403.3" y2="587.6"/>
			<line class="st17" x1="388.9" y1="580.4" x2="383.3" y2="587.7"/>
			<line class="st17" x1="391.3" y1="580.2" x2="397.1" y2="587.6"/>
			<line class="st17" x1="389.7" y1="600.5" x2="383.3" y2="587.7"/>
			<line class="st17" x1="389.9" y1="599.4" x2="396.2" y2="586.9"/>
		</g>
		<line class="st17" x1="380" y1="580.2" x2="374.2" y2="573.7"/>
		<line class="st17" x1="376" y1="584.8" x2="369.3" y2="583"/>
		<line class="st17" x1="400.1" y1="580.2" x2="404.4" y2="575.6"/>
		<line class="st17" x1="404.5" y1="584.3" x2="411.6" y2="582.3"/>
	</g>
	
	
	<g id="Character_2_">
		<a href="/character/5" class='character'>
		<g id="Joey_3_">
			<path id="face_23_" class="st18" d="M688.4,747.4h-20.5l-11,11.2l-1.6,17.5v5.7c0,0-7.7,0-4.9,8.3s6.7,3.9,6.7,3.9
				s7.5,16.1,30.3,16.5c22.8,0.4,15.5,0,15.5,0s21.1,0.6,28.7-15.9c0,0,7.9,3.7,7.9-7.1c0,0-0.4-5.7-3.5-5.5c-3,0.2-4.5-1.6-6.1,5.5
				l1.2-19.3l-0.8-13l-6.9-10.2l-10.2-2.2l-16.5,1.6L688.4,747.4z"/>
			<path id="hair_3_" class="st19" d="M688.4,749c0,0-1.4-0.8-4.1-0.8s-10.8,0.4-10.8,0.4s-8.3-0.2-10.2,7.3c0,0,0.8,15.2,4.9,22.8
				c0,0-5.3-1.2-8.5-6.1c0,0-1.6,9.8,0,16.5c0,0-3.3-7.9-6.1-7.1v-6.5c0,0-9.1-2.8-5.9-18.7l5.5-14.6c0,0,4.9-12.4,19.1-10.8
				c0,0,29.7-14.4,48.4-4.3c0,0,20.1,10,22,29.2v11.5l-7.1,7.5v6.9c0,0-3.5-1-3.9,2.6c-0.4,3.7-1.8,4.3-1.8,4.3l-0.2-14.2
				c0,0-3.5-0.2-3.5,2.8c0,0,3.5-16.5-0.8-24.8c0,0,0.4,18.3-5.1,21.3c0,0,3.9-24.6-4.1-26.2c0,0,9.4,29.9-7.7,35.6
				c0,0,14.6-11.4-1.8-30.7C706.7,752.9,700.8,745.4,688.4,749z"/>
			<path id="hair2_3_" class="st20" d="M687.4,744.5c0,0-13-12.2-25-1.6c0,0-10.2,5.9,2.6,31.7c0,0-8.7-21.5-1.4-28.7
				c0,0,7.9-9.6,23.8,1.6c0,0,18.5-11.2,31.9-6.9c0,0,15.9,3,8.9,32.1c0,0,13.2-24.9-5.3-34.2C723,738.6,706.1,732.4,687.4,744.5z"
				/>
			<ellipse id="mouth_23_" class="st21" cx="694.7" cy="797.4" rx="4.2" ry="2.7"/>
			<circle id="cheek2_11_" class="st22" cx="666.8" cy="794.3" r="6.5"/>
			<circle id="cheek_35_" class="st22" cx="722.3" cy="794.3" r="6.5"/>
			<path id="eyebrow_15_" class="st19" d="M666.8,785.4c0,0,1.1-2.4,7.5-4.5c0,0,11.1-4.1,6.3-8.5c0,0-1.5,5.5-6.3,6.5
				C674.2,778.9,668,781.3,666.8,785.4z"/>
			<path id="eyebrow_14_" class="st19" d="M720.5,776.1c0,0,3.9-10.6-16.2-8.7c0,0-2.1,3.2,3.5,2.5
				C707.8,769.9,719.9,767.4,720.5,776.1z"/>
			<g id="Eyes_47_">
				<path id="_x31__23_" class="st23" d="M672.8,786h7.9c0,0,2.3,4.7-3,6.3C677.7,792.3,670.9,793.3,672.8,786z"/>
				<path id="_x32__23_" class="st24" d="M673.3,786c0.1,0-0.4,4.4,3.1,4.8c0,0,3.9,0.7,4-4.8H673.3z"/>
				<path id="_x33__24_" class="st25" d="M674.8,786h3.9c0,0,0.1,2.9-2,3C676.8,789.1,674.9,789.3,674.8,786z"/>
				<g id="_x34__44_">
					<g>
						<path class="st25" d="M676.9,791.5c0.8,0,0.8-1.2,0-1.2C676.1,790.2,676.1,791.5,676.9,791.5L676.9,791.5z"/>
					</g>
				</g>
			</g>
			<g id="Eyes_46_">
				<path id="_x31__22_" class="st23" d="M708.3,786h7.9c0,0,2.3,4.7-3,6.3C713.2,792.3,706.4,793.3,708.3,786z"/>
				<path id="_x32__22_" class="st24" d="M708.8,786c0.1,0-0.4,4.4,3.1,4.8c0,0,3.9,0.7,4-4.8H708.8z"/>
				<path id="_x33__23_" class="st25" d="M710.3,786h3.9c0,0,0.1,2.9-2,3C712.3,789.1,710.4,789.3,710.3,786z"/>
				<g id="_x34__33_">
					<g>
						<path class="st25" d="M712.4,791.5c0.8,0,0.8-1.2,0-1.2C711.5,790.2,711.5,791.5,712.4,791.5L712.4,791.5z"/>
					</g>
				</g>
			</g>
		</g>
		</a>
		<a href="/character/2" class='character'>
		<g id="Ross_3_">
			<path id="hair_x5F_back_7_" class="st26" d="M563.6,345c0,0,3,11.8,16.2,11.9c0,0,56.7,15.8,65.6-15.3L563.6,345z"/>
			<path id="face_22_" class="st18" d="M597.4,298.2h-20.5l-11,11.2l-1.6,17.5v5.7c0,0-7.7,0-4.9,8.3s6.7,3.9,6.7,3.9
				s7.5,16.1,30.3,16.5c22.8,0.4,15.5,0,15.5,0s21.1,0.6,28.7-15.9c0,0,7.9,3.7,7.9-7.1c0,0-0.4-5.7-3.5-5.5c-3,0.2-4.5-1.6-6.1,5.5
				l1.2-19.3l-0.8-13l-6.9-10.2l-10.2-2.2l-16.5,1.6L597.4,298.2z"/>
			<ellipse id="mouth_22_" class="st21" cx="602.7" cy="352.5" rx="4.2" ry="2.7"/>
			<circle id="cheek2_10_" class="st22" cx="575.8" cy="345" r="6.5"/>
			<circle id="cheek_34_" class="st22" cx="631.4" cy="345" r="6.5"/>
			<path id="brow_31_" class="st26" d="M592.1,322.2c0,0-14.9-0.7-16.3,6.3c0,0-1-7.4,12-10.4C587.8,318.2,594.4,317.4,592.1,322.2z
				"/>
			<path id="brow_30_" class="st26" d="M611.9,322.2c0,0,0.7-4.6,3.8-4.1c3.1,0.5,15.1,0.7,13.7,11
				C629.3,329.1,623.9,318,611.9,322.2z"/>
			<g id="Hair_15_">
				<path class="st27" d="M566.6,338.5l0.8-13.9l3.3-3.2v-8.8c0,0,9.8-10.7,31.8-11.7c0,0,9.8-2,32.3,8.8v10.8l3.8,4.8v12.9l1.5,0.2
					v-5c0,0,5-2.5,6.3,0.7c0,0,3-9.8,2.8-21.7c0,0,0.8-10.5,6.8-11.8c0,0-1-3-10,0l-0.2-1.3l6.8-3.5l-13.7-8.3l2.7-0.7
					c0,0-18.4-8-17-19.8c0,0-6.5,0.7-5.5,11.7c0,0-3.8-0.7,0-11.7c0,0-11.8,1.7-19.8,9.8c0,0-8-5.8-7.8-11.7c0.2-5.8-4.9,8-1.5,14.8
					c0,0-4.7-1.7-3.5-12.5c0,0-5.7,1.5-13.3,10.2l2.4-4.3c0,0-16.2,4.3-18.1,27c0,0-2.2-2.5-8.5-0.5c0,0,8.7,2.8,8.3,19
					c0,0,1.8,13.8,2.5,14.3C560.7,333.7,566.1,329,566.6,338.5z"/>
				<path class="st28" d="M572,310.8c0,0-9.8-5.1-2.7-20c0,0-3.3,16,4.6,18.8L572,310.8z"/>
				<path class="st28" d="M576.9,307.6l3.5-1.9c0,0-10.2-4.5,1.9-25.9C582.3,279.8,566.1,295.5,576.9,307.6z"/>
				<path class="st28" d="M601.5,300.8c0,0-2.7-16.6,2.2-21c0,0-3.9,9.3-0.5,21H601.5z"/>
				<path class="st28" d="M630.2,307.6c0,0,5.9-18-4.5-29.2c0,0,15.1,12.2,6.1,29.9L630.2,307.6z"/>
			</g>
			<g id="Eyes_45_">
				<path id="_x31__21_" class="st29" d="M581.8,336.8h7.9c0,0,2.3,4.7-3,6.3C586.8,343.1,579.9,344.1,581.8,336.8z"/>
				<path id="_x32__21_" class="st24" d="M582.3,336.8c0.1,0-0.4,4.4,3.1,4.8c0,0,3.9,0.7,4-4.8H582.3z"/>
				<path id="_x33__22_" class="st25" d="M583.9,336.8h3.9c0,0,0.1,2.9-2,3C585.8,339.8,584,340.1,583.9,336.8z"/>
				<g id="_x34__31_">
					<g>
						<path class="st25" d="M585.9,342.2c0.8,0,0.8-1.2,0-1.2C585.1,341,585.1,342.2,585.9,342.2L585.9,342.2z"/>
					</g>
				</g>
			</g>
			<g id="Eyes_44_">
				<path id="_x31__20_" class="st29" d="M617.3,336.8h7.9c0,0,2.3,4.7-3,6.3C622.3,343.1,615.4,344.1,617.3,336.8z"/>
				<path id="_x32__20_" class="st24" d="M617.8,336.8c0.1,0-0.4,4.4,3.1,4.8c0,0,3.9,0.7,4-4.8H617.8z"/>
				<path id="_x33__21_" class="st25" d="M619.4,336.8h3.9c0,0,0.1,2.9-2,3C621.3,339.8,619.4,340.1,619.4,336.8z"/>
				<g id="_x34__29_">
					<g>
						<path class="st25" d="M621.4,342.2c0.8,0,0.8-1.2,0-1.2C620.6,341,620.6,342.2,621.4,342.2L621.4,342.2z"/>
					</g>
				</g>
			</g>
		</g>
		</a>
		<a href="/character/4" class='character'>
		<g id="chandler_3_">
			<path id="hair_x5F_back_6_" class="st30" d="M419.3,719.5l3.1-5.9l80.1-7.2c0,0,2,26.9-17.6,24.4
				C484.9,730.7,426.4,741.6,419.3,719.5z"/>
			<path id="face_21_" class="st18" d="M453.3,671.7h-20.5l-11,11.2l-1.6,17.5v5.7c0,0-7.7,0-4.9,8.3s6.7,3.9,6.7,3.9
				s7.5,16.1,30.3,16.5c22.8,0.4,15.5,0,15.5,0s21.1,0.6,28.7-15.9c0,0,7.9,3.7,7.9-7.1c0,0-0.4-5.7-3.5-5.5c-3,0.2-4.5-1.6-6.1,5.5
				l1.2-19.3l-0.8-13l-6.9-10.2l-10.2-2.2l-16.5,1.6L453.3,671.7z"/>
			<path id="eyebrow_13_" class="st31" d="M447.9,690.1c0,0-2.4,2-5.6,2.4c0,0-8.7,1-10.7,3.9l-2.5,2.7c0,0,3.5-2.2,9.4-3.4
				C438.6,695.7,450.8,695.3,447.9,690.1z"/>
			<path id="eyebrow_12_" class="st31" d="M467.4,700.6c0,0,12.1,0.1,15.4-0.5c0,0,6,2.6,5.5,6.2c0,0-2.5-3.3-4.2-3.7
				C484,702.6,468.6,704.6,467.4,700.6z"/>
			<g id="Hair_14_">
				<path class="st30" d="M455.4,674.8c0,0-19.6-6-26.2,5.1c0,0-4.2,9.3,4.9,26.7c0,0-4.6-2-8.9-6.4c0,0-3.6,9.8,0,16.4
					c0,0-3.4-0.9-5.2-10.4c0,0-3.8-0.7-4.2,1.5v-6.8c0,0-6.8-1.5-4-14.8c0,0,5.5-30.9,25.6-28.5c0,0,11.7-4,19.9-1.1
					c0,0,7.9-3.2,14.6-1c0,0,2.8,1.5,5.4,1.5c0,0,34.8,2.7,25.8,28.7c0,0,1.1,20.5-0.4,20.7s-3.3-2.9-4.4,0
					c-1.1,2.9-3,11.1-4.3,10.2c0,0,1.6-9.7,0-17.5c0,0-5.7,6.6-12.1,6.6c0,0,8.2-17.7,5.6-23.6C487.2,682,485.1,668.6,455.4,674.8z"
					/>
				<path class="st32" d="M456.1,672.5c0,0-19.6-16.1-30.7,2c0,0-4.4,16.6,5,28.5c0,0-8.4-27.9,3.6-31.9c0,0,8.4-2.5,22.1,2.8V672.5
					z"/>
				<path class="st33" d="M456.3,674.7c0,0,0.8-17.1,22.9-17.7l1.3,0.1l5.3,0.6C485.8,657.8,465.4,660.5,456.3,674.7z"/>
				<path class="st33" d="M456.3,674.4c0,0,12.7-14.8,30.5-6.6c0,0,19.1,7.7-3.8,37.7c0,0,19.6-31.7-0.2-35.4
					C482.7,670.1,472.2,666.4,456.3,674.4z"/>
			</g>
			<ellipse id="mouth_21_" class="st21" cx="459.6" cy="721.7" rx="4.2" ry="2.7"/>
			<circle id="cheek2_9_" class="st22" cx="431.7" cy="718.6" r="6.5"/>
			<circle id="cheek_33_" class="st22" cx="487.2" cy="718.6" r="6.5"/>
			<g id="Eyes_43_">
				<path id="_x31__19_" class="st34" d="M437.7,710.4h7.9c0,0,2.3,4.7-3,6.3C442.6,716.7,435.8,717.6,437.7,710.4z"/>
				<path id="_x32__19_" class="st24" d="M438.2,710.4c0.1,0-0.4,4.4,3.1,4.8c0,0,3.9,0.7,4-4.8H438.2z"/>
				<path id="_x33__20_" class="st25" d="M439.8,710.4h3.9c0,0,0.1,2.9-2,3C441.7,713.4,439.8,713.7,439.8,710.4z"/>
				<g id="_x34__27_">
					<g>
						<path class="st25" d="M441.8,715.8c0.8,0,0.8-1.2,0-1.2C441,714.5,441,715.8,441.8,715.8L441.8,715.8z"/>
					</g>
				</g>
			</g>
			<g id="Eyes_42_">
				<path id="_x31__18_" class="st34" d="M473.2,710.4h7.9c0,0,2.3,4.7-3,6.3C478.1,716.7,471.3,717.6,473.2,710.4z"/>
				<path id="_x32__18_" class="st24" d="M473.7,710.4c0.1,0-0.4,4.4,3.1,4.8c0,0,3.9,0.7,4-4.8H473.7z"/>
				<path id="_x33__19_" class="st25" d="M475.3,710.4h3.9c0,0,0.1,2.9-2,3C477.2,713.4,475.3,713.7,475.3,710.4z"/>
				<g id="_x34__25_">
					<g>
						<path class="st25" d="M477.3,715.8c0.8,0,0.8-1.2,0-1.2C476.5,714.5,476.5,715.8,477.3,715.8L477.3,715.8z"/>
					</g>
				</g>
			</g>
		</g>
		</a>
		<a href="/character/1" class='character'>
		<g id="RACHEL_3_" >
			<path id="back_hair_3_" class="st35" d="M808.2,385.7c0,0-8.8,23.6-2.4,34.8c0,0-3-5.8-0.8-15.1c0,0,2.8,30.6,10.7,33.2
				c0,0-4.3-6.3-4.2-9.3c0,0,4.4,11.3,18.4,14.4c0,0-2.3-2.3-2.4-3.5c0,0,6,4.2,8.3,5c2.3,0.8-3.3-1.5-3.3-3.5c0,0,4.5,4.2,10.6,5.8
				c0,0,13.3,3.5,21.5-5.3c0,0-2.9,3.9-4.4,5c0,0,5.2-2.2,6.8-6.2c0,0-0.3,5-1.7,5.5c-1.4,0.5,10.2-1.9,16.4-11.3
				c6.2-9.4,0.4-37.9,0.4-37.9l-0.4-33.6L861,349.9l-36.3,12l-10.2,27.4L808.2,385.7z"/>
			<path id="face_20_" class="st18" d="M855,355.8c0,0-23.4-6.6-35.4,19.3c0,0-20.2,49.9,30.4,52.8c0,0,37.6,0.9,36.3-38.3
				C886.3,389.6,881.3,358.1,855,355.8z"/>
			<circle id="cheek_32_" class="st22" cx="874.8" cy="409.6" r="6.7"/>
			<circle id="cheek_31_" class="st22" cx="825.5" cy="410.2" r="6.7"/>
			<g id="Hair_13_">
				<path class="st36" d="M859.6,360.5c0,0-29.7-8.5-37.8,15.6c0,0-6.5,44.4,11.2,59.3c0,0-16.7-4.9-18.7-17.1
					c0,0,0.4,10.9,3.8,13.1c0,0-10.5-6.1-10.4-20.6c0.1-14.6,2-20.4,0.5-25.6c0,0-6.9-28.4,18.2-34.9c0,0,31-29,58.1,9
					c0,0,10.5,12.5,11.1,39.4c0,0,4.3,20,2.2,27.2c0,0,0.9-13.8-4-26c0,0,6.9,29.9-3.8,40.6c0,0,5.7-8.6,4-17.5
					c0,0-1.3,19.3-15,22.2c0,0,10.2-9.4,7.8-23.6c0,0,0.5,17.4-8.9,19.7c0,0,5.1-3.4,6.1-10.4c0,0-5.8,10.4-11.5,9.8
					c0,0,4.4-1.9,5.4-10.7c0,0,9.6-37.9-1.2-57.8C876.7,372.3,873,360.8,859.6,360.5z"/>
				<path class="st37" d="M832.5,362.2c0,0-36,0.3-13.4,57c0,0,3.7,12,14.8,12.9c0,0-12.4-2-15.1-20.5
					C818.8,411.6,806.9,369.2,832.5,362.2z"/>
				<path class="st37" d="M832.5,362.7c0,0,37.6-32.8,52.8,11.7c0,0,9.3,28.5-1.9,51.3c0,0-4,7.1-10.3,11.2c0,0,21-19.2,9.3-58.7
					C882.4,378.2,873.6,341.4,832.5,362.7z"/>
				<path class="st37" d="M832.3,362.8c0,0-1.8-17.2,11.7-21.2c0,0,5.7-2.9,17-0.7l5.2,1.9c0,0-24.9-7.2-33.2,17.7
					C832.7,361.2,832.5,362,832.3,362.8z"/>
			</g>
			<ellipse id="mouth_20_" class="st38" cx="849.4" cy="414.8" rx="3.7" ry="2.1"/>
			<g id="Eyes_41_">
				<path class="st39" d="M835.7,402.8c0,0-1.3-3-6.4-2.4c0,0-2.9,0.9-5.2-1c0,0,0.9,4.6,4.4,6.7
					C832.2,408.2,835.7,402.8,835.7,402.8z"/>
				<circle class="st40" cx="831.9" cy="404.1" r="4.5"/>
				<circle class="st41" cx="831.9" cy="403.1" r="2.8"/>
				<circle class="st42" cx="831.9" cy="402.2" r="1.9"/>
				<g>
					<g>
						<path class="st43" d="M832.1,407.1c0.8,0,0.8-1.2,0-1.2C831.3,405.8,831.3,407.1,832.1,407.1L832.1,407.1z"/>
					</g>
				</g>
			</g>
			<g id="Eyes_40_">
				<path class="st39" d="M864.1,402.8c0,0,1.3-3,6.4-2.4c0,0,2.9,0.9,5.2-1c0,0-0.9,4.6-4.4,6.7S864.1,402.8,864.1,402.8z"/>
				<circle class="st40" cx="868" cy="404.1" r="4.5"/>
				<circle class="st41" cx="868" cy="403.1" r="2.8"/>
				<circle class="st42" cx="868" cy="402.2" r="1.9"/>
				<g>
					<g>
						<path class="st43" d="M868.2,407.1c0.8,0,0.8-1.2,0-1.2C867.4,405.8,867.4,407.1,868.2,407.1L868.2,407.1z"/>
					</g>
				</g>
			</g>
			<path id="brow_29_" class="st44" d="M840,387.3c0,0-12.7-4.9-18.5,1c0,0,5.5-3.2,12-0.4C833.5,387.9,840.4,390.3,840,387.3z"/>
			<path id="brow_28_" class="st44" d="M861.5,387.3c0,0,12.7-4.9,18.5,1c0,0-5.5-3.2-12-0.4C868.1,387.9,861.2,390.3,861.5,387.3z"
				/>
			<g>
				<g>
					<path class="st45" d="M841.2,399.3c3.2,0,3.2-5,0-5C838,394.3,838,399.3,841.2,399.3L841.2,399.3z"/>
				</g>
			</g>
		</g>
		</a>
		<a href="/character/3" class='character'>
		<g id="Monica_3_" >
			<path id="back_x5F_hair_3_" class="st46" d="M425,426.5c0,0-58.8-13.8-57.9,33.7c0,0,4.6,22.6,0,33.2c0,0-3.2,20.7,23.1,23.8
				l-2.2-3c0,0,4.6,2.7,7.4,3.7c0,0,15.8,3.6,33.2-0.5c0.7-0.2,1.3-0.3,2-0.5c0,0-1.7,2.1-3.7,3.9c0,0,6-2.7,6.8-5.1l-2.3,5.1
				c0,0,11.8,0.9,23.7-10.7c11.9-11.6,9.4-33.4,5.7-45.4C457.1,452.5,461.5,429.3,425,426.5z"/>
			<path id="face_19_" class="st18" d="M421.6,438.3c0,0-23.4-6.6-35.4,19.3c0,0-20.2,49.9,30.4,52.8c0,0,37.6,0.9,36.3-38.3
				C452.9,472.1,447.9,440.6,421.6,438.3z"/>
			<circle id="cheek_30_" class="st22" cx="441.4" cy="492.1" r="6.7"/>
			<circle id="cheek_29_" class="st22" cx="392.8" cy="493.4" r="6.7"/>
			<ellipse id="mouth_19_" class="st47" cx="416" cy="497.3" rx="3.7" ry="2.1"/>
			<g id="Eyes_39_">
				<path class="st39" d="M402.3,485.3c0,0-1.3-3-6.4-2.4c0,0-2.9,0.9-5.2-1c0,0,0.9,4.6,4.4,6.7S402.3,485.3,402.3,485.3z"/>
				<circle class="st48" cx="398.4" cy="486.6" r="4.5"/>
				<circle class="st41" cx="398.4" cy="485.6" r="2.8"/>
				<circle class="st42" cx="398.4" cy="484.7" r="1.9"/>
				<g>
					<g>
						<path class="st43" d="M398.7,489.6c0.8,0,0.8-1.2,0-1.2C397.9,488.3,397.9,489.6,398.7,489.6L398.7,489.6z"/>
					</g>
				</g>
			</g>
			<g id="Eyes_38_">
				<path class="st39" d="M430.7,485.3c0,0,1.3-3,6.4-2.4c0,0,2.9,0.9,5.2-1c0,0-0.9,4.6-4.4,6.7
					C434.3,490.7,430.7,485.3,430.7,485.3z"/>
				<circle class="st48" cx="434.5" cy="486.6" r="4.5"/>
				<circle class="st41" cx="434.5" cy="485.6" r="2.8"/>
				<circle class="st42" cx="434.5" cy="484.7" r="1.9"/>
				<g>
					<g>
						<path class="st43" d="M434.8,489.6c0.8,0,0.8-1.2,0-1.2C434,488.3,434,489.6,434.8,489.6L434.8,489.6z"/>
					</g>
				</g>
			</g>
			<path id="brow_27_" class="st27" d="M406.2,468.9c0,0-2.4,0.2-9.3-2.6c0,0-7.5-1.3-9.2,3.1c0,0,4.6-3.5,10.3-1
				C398,468.4,404.7,472.7,406.2,468.9z"/>
			<path id="brow_26_" class="st27" d="M427.8,470.4c0,0,13.3-2.7,18.1,4c0,0-4.9-4.1-11.7-2.3C434.2,472.1,427,473.4,427.8,470.4z"
				/>
			<g id="Hair_12_">
				<path class="st49" d="M432.6,447.3c0,0-36-4.8-39.8,2.7c0,0-9.4,8-4.7,29c0,0,9.7,21.9-11.2,22.6c0,0,9.5-3.4,7.4-12.6
					c0,0-23.9-61.8,35.2-62.6c0,0,21.6,1.9,32.5,14.4c0,0,7.9,6.6,8.6,28.3c0,0,2.5,31.4-14.6,39.9c0,0,5.4-5.2,6-9
					c0,0-3.8,7.5-17.5,9c0,0,19.9-8.3,16.2-32.7C450.8,476.5,451.3,444.1,432.6,447.3z"/>
				<path class="st50" d="M424.2,435.3c0,0-52.7-14.4-49,34.4c0,0-14.4-42.6,33.5-39.9C408.7,429.8,414,430.1,424.2,435.3z"/>
				<path class="st50" d="M432.6,443.5c0,0,20.3-17.3,24.6,7.3c0,0,4.5,48-14.4,49.4c0,0,9.7-4.6,10.3-15.4
					C453.1,484.7,461,425.4,432.6,443.5z"/>
				<path class="st50" d="M432.6,446.6c0,0-20.9-24.3-48.3-3.9c0,0-10.4,14.7-0.6,34.5c0,0,8.5,18.3-5.4,22.9c0,0,13-3,8.3-18.3
					c0,0-12.6-33,4.1-39.1C390.7,442.7,404.1,433.3,432.6,446.6z"/>
			</g>
		</g>
		</a>
		<a href="/character/6" class='character'>
		<g id="Phoebe_3_">
			<path class="st51" d="M878.1,583.9c0,0-39.8-1-42.2,49.2c0,0-7.8,57.1,19,58.4l-1.9-3.4c0,0,10.4,7.1,20.2,8.4
				c0,0,10.2,3.2,25-5.5l4-3.1l-2.3,5.5c0,0,15.8-3.7,17.4-12c0,0,9.7-24.3,1.4-58C918.8,623.4,913.7,584.4,878.1,583.9z"/>
			<path id="face_18_" class="st18" d="M882.5,597.6c0,0-23.4-6.6-35.4,19.3c0,0-20.2,49.9,30.4,52.8c0,0,37.6,0.9,36.3-38.3
				C913.8,631.4,908.8,600,882.5,597.6z"/>
			<circle id="cheek_28_" class="st22" cx="902.3" cy="649.2" r="6.7"/>
			<circle id="cheek_27_" class="st22" cx="853" cy="649.1" r="6.7"/>
			<ellipse id="mouth_18_" class="st47" cx="876.9" cy="656.6" rx="3.7" ry="2.1"/>
			<g id="Eyes_37_">
				<path class="st39" d="M863.2,644.6c0,0-1.3-3-6.4-2.4c0,0-2.9,0.9-5.2-1c0,0,0.9,4.6,4.4,6.7
					C859.7,650.1,863.2,644.6,863.2,644.6z"/>
				<circle class="st52" cx="859.4" cy="645.9" r="4.5"/>
				<circle class="st41" cx="859.4" cy="644.9" r="2.8"/>
				<circle class="st42" cx="859.4" cy="644.1" r="1.9"/>
				<g>
					<g>
						<path class="st43" d="M859.6,648.9c0.8,0,0.8-1.2,0-1.2C858.8,647.7,858.8,648.9,859.6,648.9L859.6,648.9z"/>
					</g>
				</g>
			</g>
			<g id="Eyes_36_">
				<path class="st39" d="M891.6,644.6c0,0,1.3-3,6.4-2.4c0,0,2.9,0.9,5.2-1c0,0-0.9,4.6-4.4,6.7
					C895.2,650.1,891.6,644.6,891.6,644.6z"/>
				<circle class="st52" cx="895.5" cy="645.9" r="4.5"/>
				<circle class="st41" cx="895.5" cy="644.9" r="2.8"/>
				<circle class="st42" cx="895.5" cy="644.1" r="1.9"/>
				<g>
					<g>
						<path class="st43" d="M895.7,648.9c0.8,0,0.8-1.2,0-1.2C894.9,647.7,894.9,648.9,895.7,648.9L895.7,648.9z"/>
					</g>
				</g>
			</g>
			<path class="st53" d="M879.1,600.7c0,0-33-12-32.8,41.8c0,0-3.4-13.1,1.8-29c0,0-11.7,37.1,5,47.1c0,0-7.3-2.7-9-10.2
				c0,0,0.7,25.2,6.1,32c0,0-7.8-0.7-9.3-7c0,0-0.7,4.8,1.5,6.3c0,0-11.9-5.4-9.6-33.5c0,0,0.2-74.3,51.5-64.1c0,0,33.7,3.3,35.6,50
				c2,46.7-6.8,48.2-6.8,48.2s2.9-6,2.6-11.8c0,0-3.6,16.2-13.5,15.7C902.3,686.3,931.2,598.9,879.1,600.7z"/>
			<path class="st54" d="M878.5,599.1c0,0-8.3-14.9-23.6-9.4l-3.2,2.8C851.6,592.5,866.8,588.4,878.5,599.1z"/>
			<path class="st54" d="M880.6,600.4c0,0,44.1-21,37,55.4c0,0-3.4,29.5-15.3,32.1c0,0,11.1-11.3,11.6-32.1
				C913.9,655.8,921.6,595.2,880.6,600.4z"/>
			<path class="st54" d="M879.6,600.4c0,0,10-12.8,20.3-9.8l6.9,4.7C906.8,595.3,897.7,589.7,879.6,600.4z"/>
			<path id="brow_25_" class="st55" d="M889.9,623.4c0,0,13.6,0.1,16.9,7.7c0,0-4-5-11-4.7C895.8,626.3,888.5,626.1,889.9,623.4z"/>
			<path id="brow_24_" class="st55" d="M865,623.5c0,0-13.6,0-16.9,7.6c0,0,4-5,11-4.7C859.1,626.4,866.4,626.2,865,623.5z"/>
		</g>
		</a>

	</g>
</g>
<rect id="top_1_" x="-1" y="2" class="st56" width="1280" height="156.1"/>
<image style="overflow:visible;" width="1600" height="242" id="LOGO_2_" xlink:href="5498D6BE0D0CC158.png"  transform="matrix(0.24 0 0 0.24 464.9971 21.9552)">
</image>
<g>
	<path class="st1" d="M476.4,100.7c0,0.4-0.4,0.7-1.2,1c-0.5,0.2-1,0.3-1.4,0.3c-2,0.2-4.3,0.7-6.7,1.4c0,0.2-0.1,0.4-0.2,0.7
		c-0.1,0.4-0.2,0.6-0.2,0.7c-0.3,1.2-0.6,2.4-0.9,3.5c-0.6,2.4-0.9,3.9-0.9,4.5l-0.1,2.2c0,0.2-0.2,0.3-0.5,0.4
		c-0.2,0.1-0.4,0.1-0.6,0.1c-0.7,0-1-0.5-1-1.6c0-0.5,0.1-1.3,0.4-2.5c0.2-1,0.4-1.7,0.5-2.2c0.1-0.3,0.2-1.1,0.4-2.4
		c0.2-1.4,0.3-2.4,0.3-2.8c0-0.2-0.1-0.4-0.3-0.5l-3.1,0.2c-0.5,0.1-0.8-0.3-0.8-1.2c0-0.5,0.1-0.9,0.4-1c0.2-0.1,0.5-0.2,1-0.2
		c0.1,0,0.2,0,0.4,0c0.2,0,0.3,0,0.4,0.1l10.7-1.6c0.7,0.1,1.5,0.2,2.2,0.2C476.1,100.1,476.4,100.4,476.4,100.7z"/>
	<path class="st1" d="M484.3,108.1c0,0.4-0.3,0.7-0.9,1c-0.5,0.2-0.8,0.3-1.1,0.3h-3.1c-0.4,0.9-0.6,1.4-0.6,1.7v3.5
		c0,0.2-0.2,0.4-0.5,0.5c-0.3,0.1-0.5,0.1-0.6,0.1c-0.4,0-0.7-0.2-1-0.5c-0.2-0.3-0.3-0.6-0.3-0.8c0-0.1,0.1-0.6,0.2-1.5
		c0.1-1.1,0.2-1.9,0.3-2.6c-0.2,0-0.5,0.1-0.8,0.1c-0.2,0-0.5,0-0.9,0c-0.3,0-0.5,0-0.6,0c-0.8,0-1.3,0.5-1.4,1.4
		c0,0.9-0.1,1.8-0.1,2.7c-0.1,1-0.4,1.5-1.1,1.5c-0.6,0-0.9-0.6-0.9-1.7c0-0.1,0-0.4,0-0.7c0-3.3,0.5-6.1,1.6-8.6
		c0.3-0.1,0.5-0.1,0.7-0.1c0.8,0,1.1,0.5,1.1,1.6c0,0.2,0,0.7-0.1,1.4c0.2,0.1,0.6,0.1,1.4,0.1c1.1,0,1.9-0.3,2.2-0.9
		c0.1-0.2,0.3-0.7,0.5-1.7c0.1-0.6,0.4-0.9,0.9-0.9c0.4,0,0.7,0.1,0.9,0.4c0.2,0.2,0.3,0.5,0.3,0.8c0,0.1-0.1,0.4-0.4,0.9
		c-0.3,0.6-0.5,1-0.5,1.2c0.9,0.1,1.7,0.1,2.6,0.2C483.6,107.5,484.3,107.8,484.3,108.1z"/>
	<path class="st1" d="M494.3,107.1c-1.2,0.3-2.8,0.6-4.8,0.8c-1.6,0.2-2.6,0.4-3.1,0.7c-0.7,0.4-1.1,1.1-1,2.1
		c0.1,0,0.2,0.1,0.3,0.1c0.1,0,0.4,0,0.7-0.1c0.3,0,0.5-0.1,0.6-0.1c0.1,0,0.8-0.1,1.9-0.4c1.2-0.3,1.8-0.4,1.9-0.4
		c0.3,0,0.6,0,0.8,0.1c0.3,0.1,0.5,0.4,0.8,0.8c-0.4,0.7-1.4,1.5-3.1,2.2c-1.6,0.7-3,1-4.1,1c-0.7,0-1.3-0.1-1.6-0.4
		c-0.4-0.3-0.6-0.8-0.6-1.5c0-0.9,0.4-2.7,1.3-5.2c0.8-2.4,1.4-3.7,1.7-4c0.3-0.3,1.3-0.4,2.8-0.4c0.7,0,1.3,0.1,1.6,0.2
		c0.5,0.2,1,0.5,1.4,1l-0.2,0.6c0,0-0.5,0-1.4,0c-1,0-1.8,0-2.4,0.2c-0.9,0.3-1.3,0.7-1.3,1.5v0.5c0.6,0,1.7,0,3.2-0.1
		c1.7-0.1,2.7-0.2,3.1-0.2c0.3,0,0.7,0.1,1.1,0.2c0.4,0.1,0.5,0.3,0.5,0.5C494.6,106.9,494.5,107,494.3,107.1z"/>
	<path class="st1" d="M511.2,107.2c0,1.5-0.5,3-1.6,4.4c-1.2,1.5-2.7,2.3-4.3,2.3c-1.3,0-2.3-0.4-3.1-1.2c-0.7-0.7-1.1-1.7-1.1-2.9
		c0-0.5,0.2-1.3,0.5-2.4c0.4-1.4,0.9-2.6,1.5-3.5c0.8-1.2,1.6-1.8,2.4-1.8c1.6,0,2.9,0.4,4,1.2C510.6,104.3,511.2,105.5,511.2,107.2
		z M508,107.9c0,0,0-0.2,0.1-0.7c0.1-0.5,0.1-0.9,0.1-1.2c0-1.5-0.7-2.1-2.2-2c-0.8,0.1-1.5,0.9-2.2,2.6c-0.6,1.4-0.9,2.5-0.9,3.2
		c0,0.4,0.1,0.8,0.2,1.2c0.3,0.7,0.7,1,1.4,1c0.9,0,1.7-0.6,2.5-1.7C507.7,109.3,508,108.5,508,107.9z"/>
	<path class="st1" d="M525,103c0,0.4-0.4,1.4-1.1,3.1c-0.8,1.8-1.6,3.4-2.4,4.7c-1,1.6-1.8,2.4-2.4,2.4c-0.5,0-1.1-0.5-1.7-1.5
		c-0.4-0.7-0.9-1.7-1.3-2.9c-0.2-0.6-0.4-1.2-0.6-1.8c-0.6,1.2-1.2,3.1-1.9,5.7c-0.1,0.2-0.3,0.4-0.6,0.6c-0.3,0.2-0.6,0.3-0.8,0.3
		c-0.4,0-0.8-0.2-1-0.6c-0.2-0.3-0.3-0.6-0.3-1c0-0.5,0.1-1,0.3-1.4c0.4-1.1,1.2-2.5,2.2-4.4c0.6-1.2,1.2-2,1.8-2.6
		c0.1-0.1,0.3-0.1,0.6-0.2c0.4,0,0.7-0.1,0.8-0.1c1,1.7,1.7,4,2,7c0.1,0.1,0.3,0.3,0.6,0.5c0.6-1,1.3-2.4,2.1-4.4
		c0.5-1.2,0.9-2,1-2.4c0.7-1.3,1.4-2,2.1-2c0.3,0,0.5,0.1,0.5,0.4C525,102.5,525,102.7,525,103z"/>
	<path class="st1" d="M535.4,107.1c-1.2,0.3-2.8,0.6-4.8,0.8c-1.6,0.2-2.6,0.4-3.1,0.7c-0.7,0.4-1.1,1.1-1,2.1
		c0.1,0,0.2,0.1,0.3,0.1c0.1,0,0.4,0,0.7-0.1c0.3,0,0.5-0.1,0.6-0.1c0.1,0,0.8-0.1,1.9-0.4c1.2-0.3,1.8-0.4,1.9-0.4
		c0.3,0,0.6,0,0.8,0.1c0.3,0.1,0.5,0.4,0.8,0.8c-0.4,0.7-1.4,1.5-3.1,2.2c-1.6,0.7-3,1-4.1,1c-0.7,0-1.3-0.1-1.6-0.4
		c-0.4-0.3-0.6-0.8-0.6-1.5c0-0.9,0.4-2.7,1.3-5.2c0.8-2.4,1.4-3.7,1.7-4c0.3-0.3,1.3-0.4,2.8-0.4c0.7,0,1.3,0.1,1.6,0.2
		c0.5,0.2,1,0.5,1.4,1l-0.2,0.6c0,0-0.5,0-1.4,0c-1,0-1.8,0-2.4,0.2c-0.9,0.3-1.3,0.7-1.3,1.5v0.5c0.6,0,1.7,0,3.2-0.1
		c1.7-0.1,2.7-0.2,3.1-0.2c0.3,0,0.7,0.1,1.1,0.2c0.4,0.1,0.5,0.3,0.5,0.5C535.6,106.9,535.5,107,535.4,107.1z"/>
	<path class="st1" d="M557.3,103.5c0,0.1-0.2,0.7-0.6,1.9c-0.5,1.6-0.8,2.5-0.9,2.8c-0.3,1.1-0.6,1.9-0.7,2.3
		c-0.4,1.1-0.7,2-1.2,2.7c-0.1,0.1-0.3,0.2-0.8,0.2c-0.7,0-1.3-0.6-2-1.9c-0.4-0.9-0.7-1.8-1.1-2.6c-0.9,1-1.8,1.9-2.8,2.9
		c-1.5,1.5-2.5,2.3-3.1,2.3c-0.2,0-0.4-0.1-0.8-0.2c-0.4-0.2-0.6-0.4-0.6-0.6c-0.2-1.6-0.7-4.1-1.3-7.3c0-0.2-0.2-0.5-0.5-1
		c-0.2-0.4-0.4-0.8-0.4-1.1c0-0.2,0.1-0.4,0.3-0.7c0.2-0.4,0.5-0.6,0.8-0.6c0.2,0,0.5,0.1,0.8,0.3s0.6,0.4,0.6,0.6
		c0.4,1.6,1,4,1.9,7.3c0.9-0.9,1.8-1.9,2.7-2.9c1.4-1.4,2.5-2.1,3.2-2.1c0.6,0,1.1,0.4,1.7,1.2c0.2,0.3,0.5,0.9,1,1.9
		c0.4-0.3,0.9-2,1.4-5.1c0-0.2,0.2-0.4,0.4-0.6c0.3-0.3,0.5-0.4,0.7-0.4c0.3,0,0.6,0.1,0.8,0.3S557.3,103.3,557.3,103.5z"/>
	<path class="st1" d="M561,102.4c0.1,1.1-0.1,2.4-0.5,3.7c-0.4,1.2-0.8,2.4-1.2,3.5c-0.5,1.4-0.8,2.5-1,3.5
		c-0.4,0.3-0.6,0.4-0.8,0.4c-0.6,0-1-0.5-1-1.4c0-1.1,0.3-2.4,1-3.9c1.2-2.9,2-4.9,2.3-5.9c0.2-0.2,0.5-0.3,0.7-0.3
		C560.7,102.2,560.9,102.3,561,102.4z"/>
	<path class="st1" d="M573.7,102.5c0,0.1,0.1,0.1,0.1,0.2c0,0.3-0.3,0.6-1,0.9c-0.5,0.3-0.9,0.4-1.1,0.4c-0.5,0.1-1.4,0.1-2.6,0.1
		c-1,0-1.7,0.1-2.3,0.3c0,0.2,0,0.3,0,0.5c0,0.2-0.1,0.3-0.2,0.6c-0.1,0.1-0.3,1.1-0.7,2.8c-0.4,1.9-0.6,3.1-0.6,3.6v2
		c-0.1,0.3-0.5,0.4-1.3,0.4c-0.5,0-0.8-0.4-0.8-1.3c0-0.4,0.1-1.1,0.3-2c0.2-0.8,0.3-1.3,0.4-1.7c0.1-0.2,0.2-0.9,0.4-1.9
		c0.2-1.1,0.3-1.9,0.3-2.3c0-0.1-0.1-0.2-0.2-0.3l-2.6,0.6c-0.4,0.1-0.6-0.4-0.6-1.5c0-0.4,0.1-0.7,0.3-0.8c0.1-0.1,0.4-0.1,0.8-0.1
		c0,0,0.2,0,0.3,0c0.2,0,0.3,0,0.4,0l8.6-1.3c0.7,0,1.3,0,1.6,0.2C573.3,101.9,573.5,102.1,573.7,102.5z"/>
	<path class="st1" d="M583.6,108.1c0,0.4-0.3,0.7-0.9,1c-0.5,0.2-0.8,0.3-1.1,0.3h-3.1c-0.4,0.9-0.6,1.4-0.6,1.7v3.5
		c0,0.2-0.2,0.4-0.5,0.5c-0.3,0.1-0.5,0.1-0.6,0.1c-0.4,0-0.7-0.2-1-0.5c-0.2-0.3-0.3-0.6-0.3-0.8c0-0.1,0.1-0.6,0.2-1.5
		c0.1-1.1,0.2-1.9,0.3-2.6c-0.2,0-0.5,0.1-0.8,0.1c-0.2,0-0.5,0-0.9,0c-0.3,0-0.5,0-0.6,0c-0.8,0-1.3,0.5-1.4,1.4
		c0,0.9-0.1,1.8-0.1,2.7c-0.1,1-0.4,1.5-1.1,1.5c-0.6,0-0.9-0.6-0.9-1.7c0-0.1,0-0.4,0-0.7c0-3.3,0.5-6.1,1.6-8.6
		c0.3-0.1,0.5-0.1,0.7-0.1c0.8,0,1.1,0.5,1.1,1.6c0,0.2,0,0.7-0.1,1.4c0.2,0.1,0.6,0.1,1.4,0.1c1.1,0,1.9-0.3,2.2-0.9
		c0.1-0.2,0.3-0.7,0.5-1.7c0.1-0.6,0.4-0.9,0.9-0.9c0.4,0,0.7,0.1,0.9,0.4c0.2,0.2,0.3,0.5,0.3,0.8c0,0.1-0.1,0.4-0.4,0.9
		c-0.3,0.6-0.5,1-0.5,1.2c0.9,0.1,1.7,0.1,2.6,0.2C582.9,107.5,583.6,107.8,583.6,108.1z"/>
	<path class="st1" d="M602.2,107.1c-1.2,0.3-2.8,0.6-4.8,0.8c-1.6,0.2-2.6,0.4-3.1,0.7c-0.7,0.4-1.1,1.1-1,2.1
		c0.1,0,0.2,0.1,0.3,0.1c0.1,0,0.4,0,0.7-0.1c0.3,0,0.5-0.1,0.6-0.1c0.1,0,0.8-0.1,1.9-0.4c1.2-0.3,1.8-0.4,1.9-0.4
		c0.3,0,0.6,0,0.8,0.1c0.3,0.1,0.5,0.4,0.8,0.8c-0.4,0.7-1.4,1.5-3.1,2.2c-1.6,0.7-3,1-4.1,1c-0.7,0-1.3-0.1-1.6-0.4
		c-0.4-0.3-0.6-0.8-0.6-1.5c0-0.9,0.4-2.7,1.3-5.2c0.8-2.4,1.4-3.7,1.7-4c0.3-0.3,1.3-0.4,2.8-0.4c0.7,0,1.3,0.1,1.6,0.2
		c0.5,0.2,1,0.5,1.4,1l-0.2,0.6c0,0-0.5,0-1.4,0c-1,0-1.8,0-2.4,0.2c-0.9,0.3-1.3,0.7-1.3,1.5v0.5c0.6,0,1.7,0,3.2-0.1
		c1.7-0.1,2.7-0.2,3.1-0.2c0.3,0,0.7,0.1,1.1,0.2c0.4,0.1,0.5,0.3,0.5,0.5C602.4,106.9,602.3,107,602.2,107.1z"/>
	<path class="st1" d="M611.3,103.1c0,0.5-1,2.4-3.1,5.7c-2.1,3.4-3.4,5.1-3.9,5.1c-0.4,0-0.8-0.6-1.2-1.8c-0.2-0.6-0.5-1.7-0.8-3.3
		c-0.3-1.2-0.4-1.8-0.5-1.8c-0.1,0-0.1,0-0.1-0.1c0,0,0.1-0.1,0.3-0.2c0,0,0,0-0.1,0c-0.6,0.1-1-0.2-1-0.7c0-0.2,0-0.5,0.1-0.7
		c0.2-0.4,0.6-0.7,1.1-0.7c0.1,0,0.3,0,0.6,0.1c0.3,0,0.5,0.1,0.6,0.1c0.2,0,0.4,0.3,0.6,0.7c0.2,0.5,0.3,1.1,0.4,1.8
		c0,0.6,0.1,1.1,0.2,1.5c0.1,0.9,0.3,1.4,0.4,1.7c0.3-0.2,0.7-0.8,1.4-1.6c0.3-0.4,0.8-1.2,1.6-2.3c0.8-1.2,1.2-2,1.3-2.4
		c0.1-0.3,0.3-0.7,0.6-1.1c0.4-0.6,0.8-0.8,1.2-0.8C611.2,102.4,611.3,102.6,611.3,103.1z"/>
	<path class="st1" d="M622.3,107.1c-1.2,0.3-2.8,0.6-4.8,0.8c-1.6,0.2-2.6,0.4-3.1,0.7c-0.7,0.4-1.1,1.1-1,2.1
		c0.1,0,0.2,0.1,0.3,0.1c0.1,0,0.4,0,0.7-0.1c0.3,0,0.5-0.1,0.6-0.1c0.1,0,0.8-0.1,1.9-0.4c1.2-0.3,1.8-0.4,1.9-0.4
		c0.3,0,0.6,0,0.8,0.1c0.3,0.1,0.5,0.4,0.8,0.8c-0.4,0.7-1.4,1.5-3.1,2.2c-1.6,0.7-3,1-4.1,1c-0.7,0-1.3-0.1-1.6-0.4
		c-0.4-0.3-0.6-0.8-0.6-1.5c0-0.9,0.4-2.7,1.3-5.2c0.8-2.4,1.4-3.7,1.7-4c0.3-0.3,1.3-0.4,2.8-0.4c0.7,0,1.3,0.1,1.6,0.2
		c0.5,0.2,1,0.5,1.4,1l-0.2,0.6c0,0-0.5,0-1.4,0c-1,0-1.8,0-2.4,0.2c-0.9,0.3-1.3,0.7-1.3,1.5v0.5c0.6,0,1.7,0,3.2-0.1
		c1.7-0.1,2.7-0.2,3.1-0.2c0.3,0,0.7,0.1,1.1,0.2c0.4,0.1,0.5,0.3,0.5,0.5C622.6,106.9,622.5,107,622.3,107.1z"/>
	<path class="st1" d="M631.8,104.4c-0.1,1.5-1.4,2.4-3.8,2.7c0.9,0.5,1.7,1.1,2.4,1.7c1.1,1,1.7,1.8,1.7,2.4c0,0.2-0.1,0.5-0.2,0.8
		c-0.1,0.4-0.3,0.6-0.4,0.6c-0.1,0-0.4-0.3-0.9-0.9c-0.5-0.6-0.8-0.9-0.9-1l-4-2.1c-0.2,0-0.5,0-0.8-0.1c-0.5-0.1-0.7-0.3-0.7-0.5
		c0-0.6,0.5-1.1,1.4-1.5c0.3-0.1,0.8-0.3,1.6-0.5c0.4-0.1,0.8-0.2,1-0.3c0.5-0.2,0.8-0.4,1-0.6c0-0.1-0.2-0.2-0.5-0.2
		c-0.6,0-1.4,0.2-2.6,0.7c-1.2,0.4-1.9,0.8-2,1.1c-0.1,0.2-0.2,0.7-0.4,1.4c-0.2,0.7-0.4,1.3-0.6,1.8c-0.1,0.3-0.2,0.7-0.3,1.4
		c-0.1,0.5-0.3,1-0.5,1.6c-0.4,1-0.9,1.5-1.5,1.5c-0.1,0-0.2-0.1-0.4-0.2c0-0.8,0.1-1.6,0.2-2.3c0.1-0.4,0.4-1.2,0.8-2.2
		c0.4-1.2,0.8-2.2,1.1-3.1c-0.3-0.1-0.6-0.2-0.9-0.3c0-0.1,0-0.3,0.1-0.6c0.1-0.4,0.1-0.6,0.2-0.6c0.3-0.1,0.6-0.2,1-0.5
		c0.1-0.2,0.3-0.4,0.4-0.5s0.3-0.3,0.6-0.3c0,0,0.3,0,0.7,0.1s0.7,0.1,0.7,0.1c0,0,0.5-0.2,1.3-0.5c0.9-0.3,1.7-0.5,2.4-0.5
		c0.9,0,1.5,0,1.8,0.1C631.5,103.4,631.9,103.8,631.8,104.4z"/>
	<path class="st1" d="M638.9,103.3c-0.1,0.9-0.5,1.7-1.3,2.6c-0.3,0.4-1.1,1.1-2.3,2.1c-0.9,0.7-1.5,1.3-1.6,1.7
		c-0.1,0.3-0.2,1.5-0.2,3.8c-0.1,0.3-0.4,0.4-0.7,0.4c-0.4,0-0.6-0.6-0.7-1.7c0-1,0-2.1,0-3.1c0-0.3-0.1-0.6-0.3-1
		c-0.2-0.4-0.2-0.6-0.2-0.5c0-0.2,0-0.6-0.1-1.3s-0.1-1.3-0.1-1.7c0-1.2,0.2-2,0.5-2.3l0.7-0.1c0.3,0.3,0.4,0.5,0.5,0.5
		c0.1,0.1,0.1,0.3,0.2,0.6l-0.1,3.9c0.4-0.3,0.9-0.8,1.6-1.6c0.8-1,1.4-1.6,1.6-1.8c0.6-0.6,1.2-0.9,1.7-0.9
		C638.4,102.9,638.6,103,638.9,103.3z"/>
	<path class="st1" d="M647.2,107.2c0,1.5-0.5,3-1.6,4.4c-1.2,1.5-2.7,2.3-4.3,2.3c-1.3,0-2.3-0.4-3.1-1.2c-0.7-0.7-1.1-1.7-1.1-2.9
		c0-0.5,0.2-1.3,0.5-2.4c0.4-1.4,0.9-2.6,1.5-3.5c0.8-1.2,1.6-1.8,2.4-1.8c1.6,0,2.9,0.4,4,1.2C646.6,104.3,647.2,105.5,647.2,107.2
		z M644,107.9c0,0,0-0.2,0.1-0.7c0.1-0.5,0.1-0.9,0.1-1.2c0-1.5-0.7-2.1-2.2-2c-0.8,0.1-1.5,0.9-2.2,2.6c-0.6,1.4-0.9,2.5-0.9,3.2
		c0,0.4,0.1,0.8,0.2,1.2c0.3,0.7,0.7,1,1.4,1c0.9,0,1.7-0.6,2.5-1.7C643.7,109.3,644,108.5,644,107.9z"/>
	<path class="st1" d="M661,103c0,0.4-0.4,1.4-1.1,3.1c-0.8,1.8-1.6,3.4-2.4,4.7c-1,1.6-1.8,2.4-2.4,2.4c-0.5,0-1.1-0.5-1.7-1.5
		c-0.4-0.7-0.9-1.7-1.3-2.9c-0.2-0.6-0.4-1.2-0.6-1.8c-0.6,1.2-1.2,3.1-1.9,5.7c-0.1,0.2-0.3,0.4-0.6,0.6c-0.3,0.2-0.6,0.3-0.8,0.3
		c-0.4,0-0.8-0.2-1-0.6c-0.2-0.3-0.3-0.6-0.3-1c0-0.5,0.1-1,0.3-1.4c0.4-1.1,1.2-2.5,2.2-4.4c0.6-1.2,1.2-2,1.8-2.6
		c0.1-0.1,0.3-0.1,0.6-0.2c0.4,0,0.7-0.1,0.8-0.1c1,1.7,1.7,4,2,7c0.1,0.1,0.3,0.3,0.6,0.5c0.6-1,1.3-2.4,2.1-4.4
		c0.5-1.2,0.9-2,1-2.4c0.7-1.3,1.4-2,2.1-2c0.3,0,0.5,0.1,0.5,0.4C661,102.5,661,102.7,661,103z"/>
	<path class="st1" d="M671.4,107.1c-1.2,0.3-2.8,0.6-4.8,0.8c-1.6,0.2-2.6,0.4-3.1,0.7c-0.7,0.4-1.1,1.1-1,2.1
		c0.1,0,0.2,0.1,0.3,0.1c0.1,0,0.4,0,0.7-0.1c0.3,0,0.5-0.1,0.6-0.1c0.1,0,0.8-0.1,1.9-0.4c1.2-0.3,1.8-0.4,1.9-0.4
		c0.3,0,0.6,0,0.8,0.1c0.3,0.1,0.5,0.4,0.8,0.8c-0.4,0.7-1.4,1.5-3.2,2.2c-1.6,0.7-3,1-4.1,1c-0.7,0-1.3-0.1-1.6-0.4
		c-0.4-0.3-0.6-0.8-0.6-1.5c0-0.9,0.4-2.7,1.3-5.2c0.8-2.4,1.4-3.7,1.7-4c0.3-0.3,1.3-0.4,2.8-0.4c0.7,0,1.3,0.1,1.6,0.2
		c0.5,0.2,1,0.5,1.4,1l-0.2,0.6c0,0-0.5,0-1.4,0c-1,0-1.8,0-2.4,0.2c-0.9,0.3-1.3,0.7-1.3,1.5v0.5c0.6,0,1.7,0,3.2-0.1
		c1.7-0.1,2.7-0.2,3.1-0.2c0.3,0,0.7,0.1,1.1,0.2c0.4,0.1,0.5,0.3,0.5,0.5C671.6,106.9,671.6,107,671.4,107.1z"/>
	<path class="st1" d="M671,102.6c0-0.2,0-0.4,0-0.7c-0.1-1.1-0.1-1.8,0-2.2c0-0.1,0-0.2,0-0.4c0-0.1,0.1-0.2,0.1-0.2
		c0,0,0.1,0,0.1,0s0.2,0.1,0.5,0.2c0.2,0.1,0.3,0.2,0.4,0.3c0.1,0.2,0.1,0.6,0.1,1.4c0,0.4-0.1,0.8-0.3,1.3c-0.2,0.7-0.4,1-0.6,1
		C671.1,103.4,671,103.2,671,102.6z"/>
	<path class="st1" d="M682,111.3c0,1.1-1,2-3.1,2.6c-1.4,0.5-2.6,0.7-3.5,0.7c-0.2,0-0.5-0.1-1-0.2c-0.6-0.1-1.1-0.3-1.4-0.4v-0.6
		c0-0.2,0.1-0.5,0.2-0.9c0.2-0.5,0.4-0.7,0.7-0.8h3.7c0,0,0.1,0,0.4,0c0.2,0,0.4,0,0.5,0c0.7,0,1.2-0.2,1.4-0.6v-0.3
		c-0.6-0.7-1.5-1.1-2.9-1.2c-1.1-0.1-2.2-0.1-3.3-0.2c-1-0.2-1.6-0.8-1.6-1.8c0-0.6,0.5-1.3,1.4-2.1c0.8-0.7,1.7-1.3,2.8-1.8
		c1-0.5,1.8-0.7,2.2-0.7c1,0,1.5,0.4,1.5,1.1c0,0.7-0.4,1.2-1.3,1.4c-0.9,0.1-1.7,0.2-2.5,0.3c-0.9,0.2-1.5,0.6-1.5,1.3
		c0.9,0.1,1.8,0.3,2.8,0.5c1.4,0.3,2.4,0.6,3.2,1.1C681.5,109.4,682,110.2,682,111.3z"/>
	<path class="st1" d="M702.7,112.2c0,0.2-0.1,0.5-0.4,0.8c-0.3,0.4-0.5,0.6-0.8,0.6c0,0-0.3-0.1-0.9-0.2c-0.6-0.1-1.3-0.2-2-0.2
		c-1.1,0-2.4,0.2-3.8,0.5c-1.4,0.3-2.5,0.5-3.2,0.5c-0.3,0-0.6,0-0.7-0.1c-0.2-0.1-0.3-0.3-0.3-0.6c0,0,0.2-0.4,0.5-1.2
		c0.4-0.9,0.7-1.7,0.9-2.3c0.5-1.7,1-3.9,1.4-6.6c0.1-0.4,0.3-0.7,0.8-0.7c0.2,0,0.4,0.1,0.6,0.3c0,2.7-0.5,5.5-1.7,8.4
		c2.3-0.4,3.4-0.5,3.2-0.5c1.3,0,2.4,0.1,3.4,0.2C701.7,111.3,702.7,111.6,702.7,112.2z"/>
	<path class="st1" d="M707,102.4c0.1,1.1-0.1,2.4-0.5,3.7c-0.4,1.2-0.8,2.4-1.2,3.5c-0.5,1.4-0.8,2.5-1,3.5
		c-0.4,0.3-0.6,0.4-0.8,0.4c-0.6,0-1-0.5-1-1.4c0-1.1,0.3-2.4,1-3.9c1.2-2.9,2-4.9,2.3-5.9c0.2-0.2,0.5-0.3,0.7-0.3
		C706.7,102.2,706.9,102.3,707,102.4z"/>
	<path class="st1" d="M721.1,103c0,0.4-0.4,1.4-1.1,3.1c-0.8,1.8-1.6,3.4-2.4,4.7c-1,1.6-1.8,2.4-2.4,2.4c-0.5,0-1.1-0.5-1.7-1.5
		c-0.4-0.7-0.9-1.7-1.3-2.9c-0.2-0.6-0.4-1.2-0.6-1.8c-0.6,1.2-1.2,3.1-1.9,5.7c-0.1,0.2-0.3,0.4-0.6,0.6c-0.3,0.2-0.6,0.3-0.8,0.3
		c-0.4,0-0.8-0.2-1-0.6c-0.2-0.3-0.3-0.6-0.3-1c0-0.5,0.1-1,0.3-1.4c0.4-1.1,1.2-2.5,2.2-4.4c0.6-1.2,1.2-2,1.8-2.6
		c0.1-0.1,0.3-0.1,0.6-0.2c0.4,0,0.7-0.1,0.8-0.1c1,1.7,1.7,4,2,7c0.1,0.1,0.3,0.3,0.6,0.5c0.6-1,1.3-2.4,2.1-4.4
		c0.5-1.2,0.9-2,1-2.4c0.7-1.3,1.4-2,2.1-2c0.3,0,0.5,0.1,0.5,0.4C721.1,102.5,721.1,102.7,721.1,103z"/>
	<path class="st1" d="M731.5,107.1c-1.2,0.3-2.8,0.6-4.8,0.8c-1.6,0.2-2.6,0.4-3.1,0.7c-0.7,0.4-1.1,1.1-1,2.1
		c0.1,0,0.2,0.1,0.3,0.1c0.1,0,0.4,0,0.7-0.1c0.3,0,0.5-0.1,0.6-0.1c0.1,0,0.8-0.1,1.9-0.4c1.2-0.3,1.8-0.4,1.9-0.4
		c0.3,0,0.6,0,0.8,0.1c0.3,0.1,0.5,0.4,0.8,0.8c-0.4,0.7-1.4,1.5-3.2,2.2c-1.6,0.7-3,1-4.1,1c-0.7,0-1.3-0.1-1.6-0.4
		c-0.4-0.3-0.6-0.8-0.6-1.5c0-0.9,0.4-2.7,1.3-5.2c0.8-2.4,1.4-3.7,1.7-4c0.3-0.3,1.3-0.4,2.8-0.4c0.7,0,1.3,0.1,1.6,0.2
		c0.5,0.2,1,0.5,1.4,1l-0.2,0.6c0,0-0.5,0-1.4,0c-1,0-1.8,0-2.4,0.2c-0.9,0.3-1.3,0.7-1.3,1.5v0.5c0.6,0,1.7,0,3.2-0.1
		c1.7-0.1,2.7-0.2,3.1-0.2c0.3,0,0.7,0.1,1.1,0.2c0.4,0.1,0.5,0.3,0.5,0.5C731.8,106.9,731.7,107,731.5,107.1z"/>
	<path class="st1" d="M739.8,111.3c0,1.1-1,2-3.1,2.6c-1.4,0.5-2.6,0.7-3.5,0.7c-0.2,0-0.5-0.1-1-0.2c-0.6-0.1-1.1-0.3-1.4-0.4v-0.6
		c0-0.2,0.1-0.5,0.2-0.9c0.2-0.5,0.4-0.7,0.7-0.8h3.7c0,0,0.1,0,0.4,0c0.2,0,0.4,0,0.5,0c0.7,0,1.2-0.2,1.4-0.6v-0.3
		c-0.6-0.7-1.5-1.1-2.9-1.2c-1.1-0.1-2.2-0.1-3.3-0.2c-1-0.2-1.6-0.8-1.6-1.8c0-0.6,0.5-1.3,1.4-2.1c0.8-0.7,1.7-1.3,2.8-1.8
		c1-0.5,1.8-0.7,2.2-0.7c1,0,1.5,0.4,1.5,1.1c0,0.7-0.4,1.2-1.3,1.4c-0.9,0.1-1.7,0.2-2.5,0.3c-0.9,0.2-1.5,0.6-1.5,1.3
		c0.9,0.1,1.8,0.3,2.8,0.5c1.4,0.3,2.4,0.6,3.2,1.1C739.3,109.4,739.8,110.2,739.8,111.3z"/>
	<path class="st1" d="M758.4,111.3c0,1.1-1,2-3.1,2.6c-1.4,0.5-2.6,0.7-3.5,0.7c-0.2,0-0.5-0.1-1-0.2c-0.6-0.1-1.1-0.3-1.4-0.4v-0.6
		c0-0.2,0.1-0.5,0.2-0.9c0.2-0.5,0.4-0.7,0.7-0.8h3.7c0,0,0.1,0,0.4,0c0.2,0,0.4,0,0.5,0c0.7,0,1.2-0.2,1.4-0.6v-0.3
		c-0.6-0.7-1.5-1.1-2.9-1.2c-1.1-0.1-2.2-0.1-3.3-0.2c-1-0.2-1.6-0.8-1.6-1.8c0-0.6,0.5-1.3,1.4-2.1c0.8-0.7,1.7-1.3,2.8-1.8
		c1-0.5,1.8-0.7,2.2-0.7c1,0,1.5,0.4,1.5,1.1c0,0.7-0.4,1.2-1.3,1.4c-0.9,0.1-1.7,0.2-2.5,0.3c-0.9,0.2-1.5,0.6-1.5,1.3
		c0.9,0.1,1.8,0.3,2.8,0.5c1.4,0.3,2.4,0.6,3.2,1.1C757.9,109.4,758.4,110.2,758.4,111.3z"/>
	<path class="st1" d="M771,102.5c0,0.1,0.1,0.1,0.1,0.2c0,0.3-0.3,0.6-1,0.9c-0.5,0.3-0.9,0.4-1.1,0.4c-0.5,0.1-1.4,0.1-2.6,0.1
		c-1,0-1.7,0.1-2.3,0.3c0,0.2,0,0.3,0,0.5c0,0.2-0.1,0.3-0.2,0.6c-0.1,0.1-0.3,1.1-0.7,2.8c-0.4,1.9-0.6,3.1-0.6,3.6v2
		c-0.1,0.3-0.5,0.4-1.3,0.4c-0.5,0-0.8-0.4-0.8-1.3c0-0.4,0.1-1.1,0.3-2c0.2-0.8,0.3-1.3,0.4-1.7c0.1-0.2,0.2-0.9,0.4-1.9
		c0.2-1.1,0.3-1.9,0.3-2.3c0-0.1-0.1-0.2-0.2-0.3l-2.6,0.6c-0.4,0.1-0.6-0.4-0.6-1.5c0-0.4,0.1-0.7,0.3-0.8c0.1-0.1,0.4-0.1,0.8-0.1
		c0,0,0.2,0,0.3,0c0.2,0,0.3,0,0.4,0l8.6-1.3c0.7,0,1.3,0,1.6,0.2C770.5,101.9,770.7,102.1,771,102.5z"/>
	<path class="st1" d="M781.4,107.8c-0.1,0.7-0.3,1.2-0.6,1.4c-0.2,0.2-0.7,0.3-1.3,0.3c-0.4,0-0.7,0-0.9-0.1
		c-0.1,0.8-0.2,1.6-0.4,2.3c-0.3,1.4-0.8,2.1-1.4,2.1c-0.5,0-0.7-0.5-0.7-1.4c0-0.5,0.1-1.1,0.2-1.9c0.1-0.7,0.2-1.1,0.2-1.1
		c0,0-0.2,0-0.4,0c-0.2,0.1-0.4,0.1-0.4,0.1c-0.2,0-0.8,0.1-1.8,0.3c-1.2,0.2-2.1,0.4-2.8,0.6c-0.2,0.3-0.5,0.6-0.8,1.1
		c-0.4,0.5-0.7,1-1.1,1.5c-0.4,0.5-0.9,0.8-1.4,0.8c-0.8,0-1.2-0.4-1.2-1.1c0-0.6,1.5-2.3,4.5-5.1c1.8-1.6,3.6-3.2,5.4-4.8
		c0.4-0.3,1-0.5,1.7-0.5c0.5,0,0.8,0.2,0.9,0.5c0,0.1,0.1,0.5,0.1,1l-0.3,3.6h2C781.2,107.6,781.3,107.6,781.4,107.8z M776.8,107.3
		c0-0.9,0-1.6-0.1-1.9c0-0.2-0.2-0.3-0.3-0.4c-0.2,0-0.4-0.1-0.4-0.1c-0.4,0.3-0.8,0.8-1.5,1.5c-0.4,0.5-0.8,1.1-1.3,1.6
		L776.8,107.3z"/>
	<path class="st1" d="M794.2,102.5c0,0.1,0.1,0.1,0.1,0.2c0,0.3-0.3,0.6-1,0.9c-0.5,0.3-0.9,0.4-1.1,0.4c-0.5,0.1-1.4,0.1-2.6,0.1
		c-1,0-1.7,0.1-2.3,0.3c0,0.2,0,0.3,0,0.5c0,0.2-0.1,0.3-0.2,0.6c-0.1,0.1-0.3,1.1-0.7,2.8c-0.4,1.9-0.6,3.1-0.6,3.6v2
		c-0.1,0.3-0.5,0.4-1.3,0.4c-0.5,0-0.8-0.4-0.8-1.3c0-0.4,0.1-1.1,0.3-2c0.2-0.8,0.3-1.3,0.4-1.7c0.1-0.2,0.2-0.9,0.4-1.9
		c0.2-1.1,0.3-1.9,0.3-2.3c0-0.1-0.1-0.2-0.2-0.3l-2.6,0.6c-0.4,0.1-0.6-0.4-0.6-1.5c0-0.4,0.1-0.7,0.3-0.8c0.1-0.1,0.4-0.1,0.8-0.1
		c0,0,0.2,0,0.3,0c0.2,0,0.3,0,0.4,0l8.6-1.3c0.7,0,1.3,0,1.6,0.2C793.7,101.9,793.9,102.1,794.2,102.5z"/>
	<path class="st1" d="M795.1,102.4c0.1,1.1-0.1,2.4-0.5,3.7c-0.4,1.2-0.8,2.4-1.2,3.5c-0.5,1.4-0.8,2.5-1,3.5
		c-0.4,0.3-0.6,0.4-0.8,0.4c-0.6,0-1-0.5-1-1.4c0-1.1,0.3-2.4,1-3.9c1.2-2.9,2-4.9,2.3-5.9c0.2-0.2,0.5-0.3,0.7-0.3
		C794.7,102.2,794.9,102.3,795.1,102.4z"/>
	<path class="st1" d="M805.3,111.3c0,1.1-1,2-3.1,2.6c-1.4,0.5-2.6,0.7-3.5,0.7c-0.2,0-0.5-0.1-1-0.2c-0.6-0.1-1.1-0.3-1.4-0.4v-0.6
		c0-0.2,0.1-0.5,0.2-0.9c0.2-0.5,0.4-0.7,0.7-0.8h3.7c0,0,0.1,0,0.4,0c0.2,0,0.4,0,0.5,0c0.7,0,1.2-0.2,1.4-0.6v-0.3
		c-0.6-0.7-1.5-1.1-2.9-1.2c-1.1-0.1-2.2-0.1-3.3-0.2c-1-0.2-1.6-0.8-1.6-1.8c0-0.6,0.5-1.3,1.4-2.1c0.8-0.7,1.7-1.3,2.8-1.8
		c1-0.5,1.8-0.7,2.2-0.7c1,0,1.5,0.4,1.5,1.1c0,0.7-0.4,1.2-1.3,1.4c-0.9,0.1-1.7,0.2-2.5,0.3c-0.9,0.2-1.5,0.6-1.5,1.3
		c0.9,0.1,1.8,0.3,2.8,0.5c1.4,0.3,2.4,0.6,3.2,1.1C804.8,109.4,805.3,110.2,805.3,111.3z"/>
	<path class="st1" d="M817.8,102.5c0,0.1,0.1,0.1,0.1,0.2c0,0.3-0.3,0.6-1,0.9c-0.5,0.3-0.9,0.4-1.1,0.4c-0.5,0.1-1.4,0.1-2.6,0.1
		c-1,0-1.7,0.1-2.3,0.3c0,0.2,0,0.3,0,0.5c0,0.2-0.1,0.3-0.2,0.6c-0.1,0.1-0.3,1.1-0.7,2.8c-0.4,1.9-0.6,3.1-0.6,3.6v2
		c-0.1,0.3-0.5,0.4-1.3,0.4c-0.5,0-0.8-0.4-0.8-1.3c0-0.4,0.1-1.1,0.3-2c0.2-0.8,0.3-1.3,0.4-1.7c0.1-0.2,0.2-0.9,0.4-1.9
		c0.2-1.1,0.3-1.9,0.3-2.3c0-0.1-0.1-0.2-0.2-0.3l-2.6,0.6c-0.4,0.1-0.6-0.4-0.6-1.5c0-0.4,0.1-0.7,0.3-0.8c0.1-0.1,0.4-0.1,0.8-0.1
		c0,0,0.2,0,0.3,0c0.2,0,0.3,0,0.4,0l8.6-1.3c0.7,0,1.3,0,1.6,0.2C817.4,101.9,817.6,102.1,817.8,102.5z"/>
	<path class="st1" d="M818.8,102.4c0.1,1.1-0.1,2.4-0.5,3.7c-0.4,1.2-0.8,2.4-1.2,3.5c-0.5,1.4-0.8,2.5-1,3.5
		c-0.4,0.3-0.6,0.4-0.8,0.4c-0.6,0-1-0.5-1-1.4c0-1.1,0.3-2.4,1-3.9c1.2-2.9,2-4.9,2.3-5.9c0.2-0.2,0.5-0.3,0.7-0.3
		C818.4,102.2,818.6,102.3,818.8,102.4z"/>
	<path class="st1" d="M834,111.1c0,0.2-0.4,0.4-1.1,0.7c-4.2,1.8-7.5,2.7-9.9,2.7c-2.7,0-4-1-4-3.1c0-1.1,0.7-2.3,2.2-3.7
		c1.2-1.2,2.7-2.3,4.5-3.2c1.7-0.9,2.9-1.4,3.6-1.4c0.6,0,0.8,0.3,0.8,1c0,0.3,0,0.5-0.1,0.6c-0.1,0.1-0.2,0.3-0.5,0.6
		c-0.1,0-0.9,0.5-2.5,1.2c-1.7,0.8-3,1.5-3.9,2.2c-1.3,1.1-2,2.1-2,3.2c0,0.5,0.3,0.9,1,1.1c0.4,0.1,0.8,0.2,1.3,0.2
		c0.8,0,1.8-0.1,2.9-0.3c0.9-0.2,1.5-0.4,1.9-0.5c0.7-0.4,1.7-0.9,3.1-1.5c0.9-0.4,1.4-0.6,1.4-0.6c0.1,0,0.4,0.1,0.7,0.3
		S834,110.9,834,111.1z"/>
	<path class="st1" d="M843.7,111.3c0,1.1-1,2-3.1,2.6c-1.4,0.5-2.6,0.7-3.5,0.7c-0.2,0-0.5-0.1-1-0.2c-0.6-0.1-1.1-0.3-1.4-0.4v-0.6
		c0-0.2,0.1-0.5,0.2-0.9c0.2-0.5,0.4-0.7,0.7-0.8h3.7c0,0,0.1,0,0.4,0c0.2,0,0.4,0,0.5,0c0.7,0,1.2-0.2,1.4-0.6v-0.3
		c-0.6-0.7-1.5-1.1-2.9-1.2c-1.1-0.1-2.2-0.1-3.3-0.2c-1-0.2-1.6-0.8-1.6-1.8c0-0.6,0.5-1.3,1.4-2.1c0.8-0.7,1.7-1.3,2.8-1.8
		c1-0.5,1.8-0.7,2.2-0.7c1,0,1.5,0.4,1.5,1.1c0,0.7-0.4,1.2-1.3,1.4c-0.9,0.1-1.7,0.2-2.5,0.3c-0.9,0.2-1.5,0.6-1.5,1.3
		c0.9,0.1,1.8,0.3,2.8,0.5c1.4,0.3,2.4,0.6,3.2,1.1C843.2,109.4,843.7,110.2,843.7,111.3z"/>
</g>
</svg>
